<?xml version="1.0" standalone="no"?>
<!DOCTYPE svg PUBLIC "-//W3C//DTD SVG 20010904//EN"
 "http://www.w3.org/TR/2001/REC-SVG-20010904/DTD/svg10.dtd">
<svg version="1.0" xmlns="http://www.w3.org/2000/svg"
 width="1123.000000pt" height="1123.000000pt" viewBox="0 0 1123.000000 1123.000000"
 preserveAspectRatio="xMidYMid meet">
<metadata>
Created by potrace 1.14, written by Peter Selinger 2001-2017
</metadata>
<g transform="translate(0.000000,1123.000000) scale(0.100000,-0.100000)"
fill="#000000" stroke="none">
<path d="M5537 9744 c-1 -1 -56 -5 -122 -8 -66 -3 -138 -8 -160 -11 -102 -12
-132 -16 -161 -21 -17 -3 -46 -6 -65 -9 -19 -2 -59 -9 -89 -15 -30 -6 -66 -13
-80 -16 -47 -9 -65 -13 -130 -29 -36 -9 -73 -18 -82 -21 -10 -2 -26 -6 -35 -8
-10 -3 -49 -14 -87 -26 -38 -12 -76 -23 -86 -25 -9 -2 -33 -10 -53 -19 -20 -8
-37 -12 -37 -9 0 3 -6 1 -12 -4 -7 -5 -60 -27 -118 -48 -58 -21 -107 -42 -110
-46 -3 -3 -16 -10 -30 -14 -14 -4 -52 -21 -84 -36 -33 -16 -65 -29 -72 -29 -7
0 -14 -3 -16 -8 -1 -4 -39 -25 -83 -47 -44 -21 -82 -41 -85 -45 -6 -6 -45 -29
-85 -49 -16 -8 -32 -17 -35 -20 -3 -4 -22 -15 -42 -26 -21 -11 -38 -23 -38
-27 0 -5 -7 -8 -15 -8 -8 0 -15 -4 -15 -10 0 -5 -5 -10 -11 -10 -16 0 -322
-221 -354 -256 -5 -6 -37 -33 -70 -60 -112 -92 -345 -331 -453 -464 -29 -36
-61 -75 -72 -86 -11 -12 -20 -26 -20 -32 0 -5 -7 -12 -15 -16 -8 -3 -15 -12
-15 -20 0 -8 -3 -16 -7 -18 -9 -4 -76 -93 -118 -158 -82 -127 -143 -230 -137
-230 4 0 2 -4 -4 -8 -13 -8 -140 -252 -169 -324 -10 -27 -23 -48 -28 -48 -4 0
-6 -4 -3 -8 3 -5 -1 -20 -8 -34 -8 -14 -19 -43 -26 -63 -7 -20 -18 -49 -26
-63 -8 -15 -14 -32 -14 -38 0 -5 -11 -39 -25 -75 -14 -35 -27 -73 -30 -84 -2
-11 -11 -42 -20 -70 -17 -53 -41 -137 -49 -177 -3 -12 -10 -43 -17 -68 -21
-87 -36 -161 -49 -245 -5 -33 -11 -69 -13 -80 -3 -11 -8 -51 -11 -90 -4 -38
-9 -83 -11 -100 -14 -103 -26 -535 -15 -535 3 0 5 -28 6 -63 1 -65 11 -195 18
-237 2 -14 7 -50 11 -80 9 -75 11 -86 25 -160 7 -36 14 -74 16 -85 1 -11 3
-20 4 -20 1 0 4 -11 6 -25 3 -14 9 -43 15 -65 6 -22 12 -47 14 -55 13 -63 82
-296 93 -315 4 -5 8 -17 9 -26 1 -9 8 -29 14 -45 7 -16 13 -33 15 -39 5 -19
106 -260 124 -295 9 -19 26 -53 36 -75 10 -22 27 -52 37 -67 10 -16 15 -28 10
-28 -4 0 -3 -4 2 -8 6 -4 17 -20 26 -37 62 -114 90 -162 147 -250 55 -86 138
-204 179 -255 7 -8 35 -44 63 -80 132 -167 351 -390 541 -550 81 -69 215 -168
329 -244 63 -42 120 -80 127 -86 7 -5 17 -10 22 -10 5 0 16 -6 23 -13 7 -7 29
-21 48 -30 19 -10 51 -27 70 -39 52 -30 223 -116 240 -120 8 -2 17 -6 20 -10
7 -8 179 -80 275 -114 39 -14 79 -29 90 -33 29 -13 186 -61 214 -66 13 -2 38
-9 56 -15 18 -6 41 -12 51 -15 10 -2 48 -10 84 -19 36 -8 79 -17 95 -20 17 -3
41 -8 55 -11 27 -6 120 -20 185 -30 23 -3 50 -7 60 -9 19 -3 154 -15 255 -22
117 -8 432 -2 575 10 82 8 96 9 175 21 25 4 59 9 75 11 17 2 41 6 55 9 14 3
39 7 55 10 47 8 76 14 126 25 26 6 55 13 65 15 11 2 19 4 19 5 0 1 9 3 20 5
42 7 176 45 195 55 11 6 20 9 20 6 0 -6 220 71 320 112 123 49 277 122 390
184 148 82 217 122 247 148 7 5 14 10 17 10 5 0 88 54 111 72 6 4 60 45 120
90 61 45 112 84 115 87 3 3 32 28 65 56 185 154 382 358 558 580 72 91 183
253 250 367 32 54 62 100 68 103 5 4 9 15 9 25 0 10 3 20 8 22 4 2 27 44 52
93 25 50 51 98 59 108 8 9 11 17 8 17 -3 0 5 21 18 48 13 26 42 94 65 152 23
58 45 114 50 125 9 22 69 200 75 225 2 8 15 57 29 107 14 51 28 103 30 115 3
13 12 53 20 89 8 36 17 81 20 100 3 19 8 45 11 59 3 14 7 39 9 55 2 17 7 53
11 80 4 28 9 68 11 90 3 22 8 69 11 105 8 72 9 567 2 645 -2 28 -8 55 -12 62
-4 6 -3 14 3 18 6 4 8 10 5 15 -5 8 -9 33 -20 120 -3 25 -7 57 -10 72 -3 16
-7 40 -9 55 -2 16 -6 39 -9 53 -4 14 -9 41 -12 60 -6 37 -12 65 -15 65 -1 0
-3 12 -5 26 -13 96 -123 452 -192 618 -59 144 -145 324 -203 426 -13 22 -34
60 -48 85 -14 25 -50 83 -81 130 -31 47 -58 89 -60 94 -5 12 -145 199 -199
266 -137 169 -410 446 -532 540 -18 14 -42 33 -54 44 -134 118 -477 340 -691
446 -27 14 -51 28 -53 33 -2 4 -10 7 -18 7 -11 0 -65 23 -164 70 -52 25 -289
112 -310 115 -3 0 -9 3 -15 6 -9 6 -55 18 -72 20 -5 1 -16 5 -26 11 -10 5 -26
11 -35 13 -9 2 -62 15 -117 29 -245 62 -456 94 -725 112 -82 5 -349 11 -353 8z"/>
</g>
</svg>
