<?xml version="1.0" encoding="UTF-8" standalone="no"?>
<svg
   xmlns:dc="http://purl.org/dc/elements/1.1/"
   xmlns:cc="http://creativecommons.org/ns#"
   xmlns:rdf="http://www.w3.org/1999/02/22-rdf-syntax-ns#"
   xmlns:svg="http://www.w3.org/2000/svg"
   xmlns="http://www.w3.org/2000/svg"
   xmlns:xlink="http://www.w3.org/1999/xlink"
   xmlns:sodipodi="http://sodipodi.sourceforge.net/DTD/sodipodi-0.dtd"
   xmlns:inkscape="http://www.inkscape.org/namespaces/inkscape"
   width="210mm"
   height="297mm"
   viewBox="0 0 210 297"
   version="1.1"
   id="svg8"
   inkscape:version="1.0.2 (e86c870879, 2021-01-15)"
   sodipodi:docname="001-newprofile.svg">
  <defs
     id="defs2">
    <linearGradient
       inkscape:collect="always"
       id="linearGradient1317">
      <stop
         style="stop-color:#323232;stop-opacity:1"
         offset="0"
         id="stop1313" />
      <stop
         style="stop-color:#262626;stop-opacity:0;"
         offset="1"
         id="stop1315" />
    </linearGradient>
    <linearGradient
       inkscape:collect="always"
       id="linearGradient1275-3">
      <stop
         style="stop-color:#8c6754;stop-opacity:1"
         offset="0"
         id="stop1271" />
      <stop
         style="stop-color:#5a3a2c;stop-opacity:1"
         offset="1"
         id="stop1273" />
    </linearGradient>
    <linearGradient
       inkscape:collect="always"
       id="linearGradient1260">
      <stop
         style="stop-color:#787f53;stop-opacity:0.69023567"
         offset="0"
         id="stop1256" />
      <stop
         style="stop-color:#787f53;stop-opacity:0;"
         offset="1"
         id="stop1258" />
    </linearGradient>
    <linearGradient
       inkscape:collect="always"
       id="linearGradient1254">
      <stop
         style="stop-color:#787f53;stop-opacity:1;"
         offset="0"
         id="stop1250" />
      <stop
         style="stop-color:#787f53;stop-opacity:0.72053874"
         offset="1"
         id="stop1252" />
    </linearGradient>
    <linearGradient
       inkscape:collect="always"
       id="linearGradient1208">
      <stop
         style="stop-color:#787f53;stop-opacity:0.83838385"
         offset="0"
         id="stop1204" />
      <stop
         style="stop-color:#787f53;stop-opacity:0;"
         offset="1"
         id="stop1206" />
    </linearGradient>
    <linearGradient
       inkscape:collect="always"
       id="linearGradient1192">
      <stop
         style="stop-color:#787f53;stop-opacity:0.56228954"
         offset="0"
         id="stop1188" />
      <stop
         style="stop-color:#787f53;stop-opacity:0;"
         offset="1"
         id="stop1190" />
    </linearGradient>
    <linearGradient
       inkscape:collect="always"
       id="linearGradient1145">
      <stop
         style="stop-color:#787f53;stop-opacity:1;"
         offset="0"
         id="stop1141" />
      <stop
         style="stop-color:#787f53;stop-opacity:0"
         offset="1"
         id="stop1143" />
    </linearGradient>
    <linearGradient
       inkscape:collect="always"
       id="linearGradient1038">
      <stop
         style="stop-color:#4c6925;stop-opacity:1"
         offset="0"
         id="stop1034" />
      <stop
         style="stop-color:#6d8e40;stop-opacity:1"
         offset="1"
         id="stop1036" />
    </linearGradient>
    <linearGradient
       inkscape:collect="always"
       id="linearGradient1022">
      <stop
         style="stop-color:#787f53;stop-opacity:1;"
         offset="0"
         id="stop1018" />
      <stop
         style="stop-color:#787f53;stop-opacity:0;"
         offset="1"
         id="stop1020" />
    </linearGradient>
    <linearGradient
       inkscape:collect="always"
       xlink:href="#linearGradient1022"
       id="linearGradient1024"
       x1="98.840767"
       y1="139.02437"
       x2="65.921997"
       y2="104.74706"
       gradientUnits="userSpaceOnUse" />
    <linearGradient
       inkscape:collect="always"
       xlink:href="#linearGradient1022"
       id="linearGradient1032"
       x1="126.85826"
       y1="124.64664"
       x2="129.7312"
       y2="72.166756"
       gradientUnits="userSpaceOnUse" />
    <linearGradient
       inkscape:collect="always"
       xlink:href="#linearGradient1038"
       id="linearGradient1040"
       x1="132.51904"
       y1="155.00864"
       x2="89.123604"
       y2="77.923904"
       gradientUnits="userSpaceOnUse" />
    <linearGradient
       inkscape:collect="always"
       xlink:href="#linearGradient1022"
       id="linearGradient1050"
       x1="84.991707"
       y1="137.97789"
       x2="71.578125"
       y2="121.69115"
       gradientUnits="userSpaceOnUse" />
    <linearGradient
       inkscape:collect="always"
       xlink:href="#linearGradient1022"
       id="linearGradient1084"
       x1="99.476379"
       y1="137.53539"
       x2="77.717903"
       y2="103.96259"
       gradientUnits="userSpaceOnUse" />
    <linearGradient
       inkscape:collect="always"
       xlink:href="#linearGradient1022"
       id="linearGradient1095"
       x1="92.297058"
       y1="118.23568"
       x2="83.579979"
       y2="109.30599"
       gradientUnits="userSpaceOnUse" />
    <linearGradient
       inkscape:collect="always"
       xlink:href="#linearGradient1022"
       id="linearGradient1105"
       x1="96.412392"
       y1="112.00623"
       x2="86.866425"
       y2="97.926613"
       gradientUnits="userSpaceOnUse" />
    <linearGradient
       inkscape:collect="always"
       xlink:href="#linearGradient1022"
       id="linearGradient1115"
       x1="96.998138"
       y1="104.41592"
       x2="93.928535"
       y2="98.392769"
       gradientUnits="userSpaceOnUse" />
    <linearGradient
       inkscape:collect="always"
       xlink:href="#linearGradient1022"
       id="linearGradient1129"
       x1="107.2035"
       y1="99.384117"
       x2="94.127937"
       y2="77.311935"
       gradientUnits="userSpaceOnUse" />
    <linearGradient
       inkscape:collect="always"
       xlink:href="#linearGradient1145"
       id="linearGradient1139"
       x1="102.56147"
       y1="103.82533"
       x2="109.76665"
       y2="115.50126"
       gradientUnits="userSpaceOnUse" />
    <linearGradient
       inkscape:collect="always"
       xlink:href="#linearGradient1022"
       id="linearGradient1153"
       x1="103.68075"
       y1="108.98117"
       x2="113.57004"
       y2="115.80836"
       gradientUnits="userSpaceOnUse" />
    <linearGradient
       inkscape:collect="always"
       xlink:href="#linearGradient1022"
       id="linearGradient1165"
       x1="119.31915"
       y1="99.649773"
       x2="109.5638"
       y2="81.341812"
       gradientUnits="userSpaceOnUse" />
    <linearGradient
       inkscape:collect="always"
       xlink:href="#linearGradient1022"
       id="linearGradient1175"
       x1="119.55009"
       y1="91.902466"
       x2="118.33017"
       y2="84.477676"
       gradientUnits="userSpaceOnUse" />
    <linearGradient
       inkscape:collect="always"
       xlink:href="#linearGradient1192"
       id="linearGradient1186"
       x1="122.26349"
       y1="95.284676"
       x2="125.36997"
       y2="87.973198"
       gradientUnits="userSpaceOnUse" />
    <linearGradient
       inkscape:collect="always"
       xlink:href="#linearGradient1208"
       id="linearGradient1202"
       x1="129.77576"
       y1="93.791245"
       x2="129.76395"
       y2="89.444519"
       gradientUnits="userSpaceOnUse" />
    <linearGradient
       inkscape:collect="always"
       xlink:href="#linearGradient1022"
       id="linearGradient1218"
       x1="136.70369"
       y1="105.62625"
       x2="140.71365"
       y2="99.106163"
       gradientUnits="userSpaceOnUse" />
    <linearGradient
       inkscape:collect="always"
       xlink:href="#linearGradient1022"
       id="linearGradient1228"
       x1="145.07199"
       y1="128.02762"
       x2="150.05655"
       y2="120.32636"
       gradientUnits="userSpaceOnUse" />
    <linearGradient
       inkscape:collect="always"
       xlink:href="#linearGradient1260"
       id="linearGradient1240"
       x1="140.70164"
       y1="141.6702"
       x2="150.52901"
       y2="135.71707"
       gradientUnits="userSpaceOnUse" />
    <linearGradient
       inkscape:collect="always"
       xlink:href="#linearGradient1254"
       id="linearGradient1248"
       x1="138.07942"
       y1="151.4149"
       x2="144.76488"
       y2="146.64294"
       gradientUnits="userSpaceOnUse" />
    <linearGradient
       inkscape:collect="always"
       xlink:href="#linearGradient1275-3"
       id="linearGradient1277"
       x1="119.85477"
       y1="176.89902"
       x2="142.07045"
       y2="190.52977"
       gradientUnits="userSpaceOnUse" />
    <linearGradient
       inkscape:collect="always"
       xlink:href="#linearGradient1275-3"
       id="linearGradient1293"
       x1="95.298294"
       y1="155.43393"
       x2="111.80218"
       y2="161.26375"
       gradientUnits="userSpaceOnUse" />
    <linearGradient
       inkscape:collect="always"
       xlink:href="#linearGradient1317"
       id="linearGradient1319"
       x1="89.58036"
       y1="211.93881"
       x2="55.032066"
       y2="238.96414"
       gradientUnits="userSpaceOnUse" />
    <clipPath
       clipPathUnits="userSpaceOnUse"
       id="clipPath198">
      <rect
         style="display:inline;fill:#323232;stroke-width:0"
         id="rect200"
         width="230"
         height="230"
         x="0"
         y="30.5" />
    </clipPath>
    <clipPath
       clipPathUnits="userSpaceOnUse"
       id="clipPath202">
      <rect
         style="display:inline;fill:#323232;stroke-width:0"
         id="rect204"
         width="230"
         height="230"
         x="0"
         y="30.5" />
    </clipPath>
    <clipPath
       clipPathUnits="userSpaceOnUse"
       id="clipPath206">
      <rect
         style="display:inline;fill:#323232;stroke-width:0"
         id="rect208"
         width="230"
         height="230"
         x="0"
         y="30.5" />
    </clipPath>
    <clipPath
       clipPathUnits="userSpaceOnUse"
       id="clipPath210">
      <rect
         style="display:inline;fill:#323232;stroke-width:0"
         id="rect212"
         width="230"
         height="230"
         x="0"
         y="30.5" />
    </clipPath>
    <clipPath
       clipPathUnits="userSpaceOnUse"
       id="clipPath214">
      <rect
         style="display:inline;fill:#323232;stroke-width:0"
         id="rect216"
         width="230"
         height="230"
         x="0"
         y="30.5" />
    </clipPath>
    <clipPath
       clipPathUnits="userSpaceOnUse"
       id="clipPath218">
      <rect
         style="display:inline;fill:#323232;stroke-width:0"
         id="rect220"
         width="230"
         height="230"
         x="0"
         y="30.5" />
    </clipPath>
    <clipPath
       clipPathUnits="userSpaceOnUse"
       id="clipPath222">
      <rect
         style="display:inline;fill:#323232;stroke-width:0"
         id="rect224"
         width="230"
         height="230"
         x="0"
         y="30.5" />
    </clipPath>
    <clipPath
       clipPathUnits="userSpaceOnUse"
       id="clipPath226">
      <rect
         style="display:inline;fill:#323232;stroke-width:0"
         id="rect228"
         width="230"
         height="230"
         x="0"
         y="30.5" />
    </clipPath>
    <clipPath
       clipPathUnits="userSpaceOnUse"
       id="clipPath230">
      <rect
         style="display:inline;fill:#323232;stroke-width:0"
         id="rect232"
         width="230"
         height="230"
         x="0"
         y="30.5" />
    </clipPath>
    <clipPath
       clipPathUnits="userSpaceOnUse"
       id="clipPath234">
      <rect
         style="display:inline;fill:#323232;stroke-width:0"
         id="rect236"
         width="230"
         height="230"
         x="0"
         y="30.5" />
    </clipPath>
    <clipPath
       clipPathUnits="userSpaceOnUse"
       id="clipPath238">
      <rect
         style="display:inline;fill:#323232;stroke-width:0"
         id="rect240"
         width="230"
         height="230"
         x="0"
         y="30.5" />
    </clipPath>
    <clipPath
       clipPathUnits="userSpaceOnUse"
       id="clipPath242">
      <rect
         style="display:inline;fill:#323232;stroke-width:0"
         id="rect244"
         width="230"
         height="230"
         x="0"
         y="30.5" />
    </clipPath>
    <clipPath
       clipPathUnits="userSpaceOnUse"
       id="clipPath246">
      <rect
         style="display:inline;fill:#323232;stroke-width:0"
         id="rect248"
         width="230"
         height="230"
         x="0"
         y="30.5" />
    </clipPath>
    <clipPath
       clipPathUnits="userSpaceOnUse"
       id="clipPath250">
      <rect
         style="display:inline;fill:#323232;stroke-width:0"
         id="rect252"
         width="230"
         height="230"
         x="0"
         y="30.5" />
    </clipPath>
    <clipPath
       clipPathUnits="userSpaceOnUse"
       id="clipPath254">
      <rect
         style="display:inline;fill:#323232;stroke-width:0"
         id="rect256"
         width="230"
         height="230"
         x="0"
         y="30.5" />
    </clipPath>
    <clipPath
       clipPathUnits="userSpaceOnUse"
       id="clipPath258">
      <rect
         style="display:inline;fill:#323232;stroke-width:0"
         id="rect260"
         width="230"
         height="230"
         x="0"
         y="30.5" />
    </clipPath>
    <clipPath
       clipPathUnits="userSpaceOnUse"
       id="clipPath262">
      <rect
         style="display:inline;fill:#323232;stroke-width:0"
         id="rect264"
         width="230"
         height="230"
         x="0"
         y="30.5" />
    </clipPath>
    <clipPath
       clipPathUnits="userSpaceOnUse"
       id="clipPath266">
      <rect
         style="display:inline;fill:#323232;stroke-width:0"
         id="rect268"
         width="230"
         height="230"
         x="0"
         y="30.5" />
    </clipPath>
    <clipPath
       clipPathUnits="userSpaceOnUse"
       id="clipPath270">
      <rect
         style="display:inline;fill:#323232;stroke-width:0"
         id="rect272"
         width="230"
         height="230"
         x="0"
         y="30.5" />
    </clipPath>
    <clipPath
       clipPathUnits="userSpaceOnUse"
       id="clipPath274">
      <rect
         style="display:inline;fill:#323232;stroke-width:0"
         id="rect276"
         width="230"
         height="230"
         x="0"
         y="30.5" />
    </clipPath>
    <clipPath
       clipPathUnits="userSpaceOnUse"
       id="clipPath278">
      <rect
         style="display:inline;fill:#323232;stroke-width:0"
         id="rect280"
         width="230"
         height="230"
         x="0"
         y="30.5" />
    </clipPath>
    <clipPath
       clipPathUnits="userSpaceOnUse"
       id="clipPath282">
      <rect
         style="display:inline;fill:#323232;stroke-width:0"
         id="rect284"
         width="230"
         height="230"
         x="0"
         y="30.5" />
    </clipPath>
    <clipPath
       clipPathUnits="userSpaceOnUse"
       id="clipPath286">
      <rect
         style="display:inline;fill:#323232;stroke-width:0"
         id="rect288"
         width="230"
         height="230"
         x="0"
         y="30.5" />
    </clipPath>
    <clipPath
       clipPathUnits="userSpaceOnUse"
       id="clipPath290">
      <rect
         style="display:inline;fill:#323232;stroke-width:0"
         id="rect292"
         width="230"
         height="230"
         x="0"
         y="30.5" />
    </clipPath>
    <clipPath
       clipPathUnits="userSpaceOnUse"
       id="clipPath294">
      <rect
         style="display:inline;fill:#323232;stroke-width:0"
         id="rect296"
         width="230"
         height="230"
         x="0"
         y="30.5" />
    </clipPath>
    <clipPath
       clipPathUnits="userSpaceOnUse"
       id="clipPath298">
      <rect
         style="display:inline;fill:#323232;stroke-width:0"
         id="rect300"
         width="230"
         height="230"
         x="0"
         y="30.5" />
    </clipPath>
  </defs>
  <sodipodi:namedview
     id="base"
     pagecolor="#ffffff"
     bordercolor="#666666"
     borderopacity="1.0"
     inkscape:pageopacity="0.0"
     inkscape:pageshadow="2"
     inkscape:zoom="0.7"
     inkscape:cx="761.31471"
     inkscape:cy="559.35129"
     inkscape:document-units="mm"
     inkscape:current-layer="layer2"
     inkscape:document-rotation="0"
     showgrid="false"
     inkscape:window-width="2087"
     inkscape:window-height="1005"
     inkscape:window-x="0"
     inkscape:window-y="85"
     inkscape:window-maximized="0" />
  <metadata
     id="metadata5">
    <rdf:RDF>
      <cc:Work
         rdf:about="">
        <dc:format>image/svg+xml</dc:format>
        <dc:type
           rdf:resource="http://purl.org/dc/dcmitype/StillImage" />
        <dc:title></dc:title>
      </cc:Work>
    </rdf:RDF>
  </metadata>
  <g
     inkscape:groupmode="layer"
     id="layer2"
     inkscape:label="Background"
     style="display:inline">
    <path
       style="fill:#a0977a;fill-opacity:1;stroke:#000000;stroke-width:0.264583px;stroke-linecap:butt;stroke-linejoin:miter;stroke-opacity:1"
       d="m -62.366072,311.0744 -3.023809,-327.705352 323.925591,1.133928 -0.37797,324.681544 z"
       id="path916"
       clip-path="url(#clipPath298)" />
  </g>
  <g
     inkscape:groupmode="layer"
     id="layer8"
     inkscape:label="neck"
     style="display:inline">
    <path
       style="fill:url(#linearGradient1293);fill-opacity:1;stroke:#000000;stroke-width:0;stroke-linecap:butt;stroke-linejoin:miter;stroke-miterlimit:4;stroke-dasharray:none;stroke-opacity:1"
       d="m 95.298291,160.91296 0.618058,-2.27179 m 0,0 0.350794,-1.95441 0.183748,-2.83974 -0.100226,-2.67269 -0.05011,-1.58692 -0.116934,-2.20497 0.300679,-0.53454 2.438834,2.00452 2.572466,1.70385 2.57247,0.63476 2.23838,2.33861 1.97112,2.57247 1.87088,2.10475 2.32191,1.80407 -0.35079,0.65146 -0.31739,0.60136 -0.48442,1.23612 -0.48443,1.5201 -1.23612,-0.46772 -1.30294,-0.48443 -1.01896,-0.3842 -1.11919,-0.41761 -1.05238,-0.18375 -1.23612,-0.28397 -0.7684,0.15034 -1.25283,-0.43431 -0.98555,-0.41761 -1.403167,-0.10023 -1.069078,-0.13363 -1.1526,-0.0501 -0.968852,0.0501 -0.968852,0.0501"
       id="path1285"
       clip-path="url(#clipPath294)" />
  </g>
  <g
     inkscape:groupmode="layer"
     id="layer3"
     inkscape:label="Cabbage"
     style="display:inline;mix-blend-mode:normal">
    <path
       style="display:inline;fill:url(#linearGradient1040);fill-opacity:1;stroke:#000000;stroke-width:0;stroke-linecap:butt;stroke-linejoin:miter;stroke-miterlimit:4;stroke-dasharray:none;stroke-opacity:1"
       d="m 111.89276,160.94698 0.77958,0.10045 1.94894,0.0413 1.24909,-3.38407 3.263,-1.1546 2.54543,-1.60935 2.80825,-1.255 3.15374,1.07192 2.59563,1.75995 2.36267,1.33013 0.73082,0.31321 0.16287,-0.29233 0.24221,0.14617 0.1754,-0.35079 0.17121,0.1044 0.071,-0.23804 0.26724,0.17122 0.0752,-0.49695 0.26309,0.27562 0.1921,-0.3842 0.25474,0.11693 0.0877,-0.26728 0.15034,0.071 0.14616,-0.34661 0.20463,0.11693 0.14616,-0.2758 0.20046,-0.004 0.15034,-0.17954 0.2506,0.0459 0.0626,-0.39254 0.29648,0.0167 0.0919,-0.24635 0.23803,0.0793 0.10446,-0.25891 0.025,-0.24224 0.33409,0.0919 0.1044,-0.20467 0.25474,0.0251 0.13364,-0.42595 0.25056,0.0501 0.10023,-0.21719 0.24221,0.0585 0.12529,-0.20885 0.2464,0.0251 0.0668,-0.20883 0.1921,0.0334 0.12946,0.0752 0.45102,-0.54707 0.18792,-0.58882 0.28815,0.1044 v -0.70158 l 0.30903,0.0167 0.41343,-0.5763 0.2798,-0.89786 0.27562,0.10858 0.24639,-0.81434 0.24639,0.13364 0.21716,-0.58468 0.21716,0.0919 0.56377,-1.49504 0.18374,0.26309 0.34244,-1.06904 0.30068,0.0292 0.45102,-1.20274 0.26727,0.0752 0.24221,-0.71833 0.23804,0.0585 0.21716,-0.67235 0.30903,-0.10022 0.30085,0.14616 0.004,-0.46354 0.11279,-0.47608 0.0292,-0.34661 0.18792,-0.18793 0.15869,-0.50113 0.13781,-0.47607 0.32574,-0.75587 0.15451,-0.68488 0.30486,-0.42596 0.29232,-0.35497 0.27562,-0.52201 0.0877,-0.64729 0.28398,-1.05238 -0.12529,-0.18375 0.15034,-0.73502 -0.15451,-0.0459 0.13367,-0.50113 -0.0418,-0.39256 0.78928,-1.26535 0.32425,-1.241 -0.11811,-0.29529 0.12697,-0.69982 -0.20966,-0.0709 0.21557,-0.5463 -0.21852,-0.20965 0.10335,-0.4961 -0.189,-0.1565 0.0384,-0.2953 -0.15059,-0.42522 -0.0768,-0.50791 -0.0295,-0.56696 -0.0886,-0.56106 0.33906,-1.67045 0.21716,-1.14425 -0.24222,-0.15034 -0.0167,-0.78719 -0.20674,-0.24222 0.0961,-0.50739 0.0732,-0.27894 -0.20375,-0.0207 0.1506,-0.44884 -0.24804,-0.15946 0.062,-0.24217 -0.22442,-0.0797 0.0561,-0.26577 -0.22143,-0.1004 0.0413,-0.26572 -0.19489,-0.0532 0.0502,-0.18901 -0.17419,-0.0738 0.0354,-0.26576 -0.33366,-0.34845 0.0236,-0.33663 -0.18307,-0.14765 0.0118,-0.2274 -0.16829,-0.0738 0.0295,-0.25105 -0.22437,-0.0974 0.0472,-0.28643 -0.41637,-0.16241 0.0443,-0.22147 -0.11521,-0.12403 0.0532,-0.16831 -0.18013,-0.15356 -0.10207,-0.45785 -0.25057,-0.46772 0.11693,-0.48024 -0.24223,-0.071 0.0209,-0.22136 -0.20465,-0.0835 0.0919,-0.35079 -0.22129,-0.35914 0.0626,-0.23804 -0.34243,-0.22968 0.0501,-0.1754 -0.24637,-0.18792 0.0668,-0.32156 -0.28394,-0.2088 0.0292,-0.23386 -0.25492,-0.0877 -0.004,-0.2923 -0.20884,-0.0919 0.0752,-0.25057 -0.16704,-0.33407 -0.17121,-0.0376 0.0501,-0.27562 -0.21715,-0.11693 0.11275,-0.50113 -0.18792,-0.23804 0.2088,-0.53871 -0.213,-0.1921 0.0209,-0.25475 -0.15451,-0.28397 0.1044,-0.4009 -0.23382,-0.53037 0.0626,-0.48025 -0.18792,-0.11693 0.16286,-0.43013 -0.25478,-0.14199 0.0251,-0.25472 -0.10021,-0.0919 0.0835,-0.47194 -0.15872,-0.096 0.0752,-0.1921 -0.22552,-0.14617 0.0543,-0.5053 -0.72664,-0.59301 0.0877,-0.74752 -0.17961,-0.1044 0.0418,-0.22133 -0.28393,-0.12946 -0.0418,-0.28397 -0.20465,-0.13364 0.0376,-0.45102 -0.0167,-0.48021 -0.18791,-0.0585 0.0336,-0.53454 0.004,-0.38002 -0.008,-0.48861 0.008,-0.64311 -0.0752,-0.44685 -0.17122,-0.12945 v -0.49273 l -0.10023,-0.0794 0.13782,-0.61388 -0.17544,-0.12529 0.0418,-0.21298 -0.16699,-0.25474 0.025,-0.34244 -0.14616,-0.17957 0.15034,-0.505304 -0.24642,-0.300678 -0.0125,-0.292326 -0.15872,-0.434313 0.0752,-0.663998 -0.14203,-0.112754 0.0251,-0.204627 -0.17961,-0.03341 0.0585,-0.346619 -0.1963,-0.09187 0.0919,-0.451018 -0.23386,-0.171219 v -0.212981 l -0.3424,-0.179571 0.0626,-0.221333 -0.22551,-0.137811 0.12529,-0.455193 -0.59306,-0.238037 -0.025,-0.283974 -0.47609,-0.292326 0.0543,-0.647294 -0.72646,-0.30903 0.004,-0.233861 -0.22547,-0.121106 -0.0251,-0.292326 -0.91873,-0.317383 0.0334,-0.258917 -0.20459,-0.133635 0.0459,-0.196275 -0.24221,-0.05429 -0.17957,0.175395 -1.12341,-0.371671 0.0418,-0.26727 -1.14842,-0.734991 -0.15034,0.238036 -0.20463,-0.04176 -0.17957,0.21298 -0.82687,-0.363319 -0.13363,-0.534539 -0.25474,-0.150339 v -0.212981 l -0.40091,-0.175395 -0.26727,-0.359144 -1.14042,-0.3842 -0.008,-0.246389 -0.11693,-0.221332 -0.17957,0.100221 -0.14617,-0.03758 -0.15451,0.133635 -1.3447,-0.438489 -0.18375,-0.476074 -0.26309,0.24221 -0.1754,-0.05011 -0.12528,0.225508 -0.16704,-0.04176 -0.2631,0.421781 -0.16704,-0.05011 -0.31738,0.137811 -0.97303,-0.313206 -0.25474,0.217156 -0.58466,-0.221332 -0.35079,-0.36332 -0.17957,0.137815 -0.25474,0.0167 -0.23386,0.141987 -0.64312,-0.21298 -0.30068,0.146163 -0.79345,-0.304854 0.32157,-1.123368 0.0501,-0.167041 -1.14844,-0.0877 -0.0501,-0.271446 -0.4806,-0.187923 -0.008,-0.250566 -0.52199,-0.187924 0.0668,-0.254741 -0.4719,-0.21298 -0.0167,-0.217157 -0.33827,-0.233861 -0.48442,-0.317384 -0.57213,0.01253 -0.5053,-0.167043 -0.20881,-0.283974 -0.23386,0.137812 -0.34661,-0.09605 -0.36332,0.07517 -0.42179,-0.0877 -0.25474,0.125283 -0.88533,-0.233861 -0.77675,-0.26727 -0.58883,0.07517 -0.33409,0.154515 -0.20045,0.133635 -1.34052,-0.442665 -0.32991,0.446842 -0.14617,-0.07517 -0.33408,0.238037 -0.51366,-0.179572 -0.53872,0.313205 -0.36334,-0.08352 -0.0835,0.196274 -0.2798,-0.06264 -0.13781,0.24221 -0.15869,-0.07099 -0.12111,0.225509 -0.50948,-0.162868 -0.21298,0.45937 -0.48025,-0.133635 -0.1211,0.162867 -0.49278,-0.100222 -0.21298,0.09187 -0.2631,-0.112754 -0.23386,0.317382 -0.1211,0.283971 -0.26724,0.02506 -0.0752,0.334084 -0.21716,-0.02923 -0.1044,0.200447 -0.24639,-0.05846 -0.40508,1.12754 -0.31321,-0.07099 -0.34244,0.28815 -0.21298,0.405082 -0.37585,-0.0877 -0.26309,0.3842 -0.36332,0.522011 -0.30903,0.613933 -0.25056,-0.0084 -0.13781,0.263092 -0.1921,-0.06264 -0.30068,0.659826 -0.15452,-0.05847 -0.20463,0.187924 -0.12945,-0.104402 -0.2798,0.279797 -0.15452,-0.04176 -0.1921,0.167048 -0.21715,0.0167 -0.30486,0.321554 -0.18792,-0.03758 -0.27562,0.3842 -0.16287,0.04176 -0.24221,0.296505 -0.18375,-0.06682 -0.283976,0.630592 -0.162868,-0.06682 -0.196276,0.267264 -0.158691,-0.05846 -0.522011,0.760048 -0.459369,0.446841 -0.425961,0.309031 -0.542891,0.643117 -0.522011,0.78928 -0.476074,0.451017 -0.50737,0.511821 -0.292341,0.369117 -0.259858,0.578775 -0.265765,0.05906 -0.209659,0.460661 -0.251001,-0.04725 -0.06201,0.174225 -0.233282,0.04134 -0.138788,0.32187 -0.172824,0.25319 -0.171219,-0.07517 -0.167044,0.354964 -0.28815,-0.07099 -0.108578,0.18792 -0.396728,-0.0167 0.167041,0.28815 0.06682,0.413432 -0.254741,0.634763 -0.283974,0.4846 -0.179572,0.004 -0.233861,0.61389 -0.329911,0.38838 -0.300678,0.46772 -0.28815,0.58883 -0.28815,0.58882 -0.283974,0.38423 -0.371671,0.0125 -0.2088,-0.12528 0.05428,-0.21716 -0.03758,-0.22555 -0.283974,-0.0167 -0.400904,0.0418 -0.421785,-0.1963 -0.217157,-0.0125 -0.146163,0.30067 -0.292326,0.3299 -0.342439,-0.0501 -0.279798,0.15034 -0.146163,0.37585 -0.258917,0.6682 -0.229685,-0.0752 -0.217156,0.3675 -0.196276,-0.10023 -0.325735,0.92711 -0.221333,-0.0209 -0.175395,0.27564 -0.238041,-0.0376 -0.07099,0.21716 -0.217156,-0.071 -0.405081,0.91461 -0.187923,-0.0418 -0.1921,0.48025 -0.242213,-0.10023 -0.17122,0.29646 -0.1921,-0.0793 -0.196276,0.4427 -0.279798,-0.0585 -0.313206,0.17957 -0.246389,0.60535 -0.229685,-0.004 -0.187924,0.53872 -0.250565,-0.10023 -0.116931,0.31321 0.100226,0.24639 -0.133634,0.46771 -0.1921,-0.0501 -0.137811,0.28393 -0.183748,-0.0793 -0.100226,0.17124 -0.150339,0.0877 -0.125283,0.0125 -0.100226,0.21716 0.154515,0.22551 -0.179571,0.40508 -0.183748,0.56794 -0.158691,0.55541 -0.250566,-0.0668 -0.167043,0.35914 0.146163,0.21298 -0.112754,0.30068 -0.175399,0.34244 0.06682,0.25891 0.192095,0.20463 0.03968,0.22343 0.236234,0.14174 0.0945,0.32482 -0.06497,0.34254 -0.200799,0.25395 -0.377975,0.16537 0.01181,0.27167 0.318918,0.36026 -0.1004,0.25395 -0.135834,0.42522 -0.05906,0.42523 0.212611,0.12402 0.236235,0.32482 -0.200799,0.24805 -0.472471,0.1004 -0.200801,0.19489 -0.04134,0.44885 0.212611,0.25986 -0.04134,0.27758 0.248047,0.25395 -0.177177,0.51973 -0.289388,-0.0886 -0.253952,0.7382 -0.153553,-0.0295 -0.194894,0.46657 -0.3012,0.12991 -0.230329,-0.0118 v 0.18309 l 0.253947,0.28938 -0.07677,0.18309 0.07087,0.2067 0.17127,0.32483 -0.177176,0.26576 0.218518,0.31892 -0.05906,0.33073 -0.313016,0.27757 0.03544,0.58469 0.212612,0.17717 v 0.28939 l -0.159459,0.53156 -0.230329,-0.065 -0.135835,0.24215 -0.23033,-0.12403 -0.224423,-0.0354 -0.295294,-0.065 -0.118117,0.23624 0.129929,0.46656 0.135838,0.42522 0.06496,0.35436 -0.01181,0.33071 -0.242141,0.0886 -0.283482,0.32483 -0.106308,0.44294 0.04134,0.56106 -0.02362,0.66736 0.206701,0.2008 0.01182,0.25986 0.09449,0.4016 0.147647,0.31892 -0.12402,0.29529 -0.04725,0.54334 0.224423,0.50791 -0.177176,0.3071 0.2008,0.6024 0.602399,0.44885 0.614211,0.48428 0.755953,0.44885 -0.141746,0.35435 0.03544,0.31892 0.838635,0.33073 0.330729,0.35435 0.118117,0.63783 1.405599,1.4056 1.630023,1.75995 0.838634,0.38979 1.228423,1.27567 0.259859,0.88588 0.791387,0.25986 0.685082,0.4961 0.614211,-0.49609 0.425224,0.0118 0.377976,-0.21262 0.377976,0.0827 0.413411,-0.16537 0.437035,0.1063 0.661459,0.0945 0.118121,0.22442 0.09449,0.47247 0.507906,0.25983 0.248047,0.0709 0.141741,-0.35435 0.27167,-0.4016 0.283482,0.56697 -0.283482,0.61421 -0.460662,0.12993 -0.09449,0.31891 0.519717,0.50791 1.511905,0.75595 0.248047,0.35435 1.358352,0.61422 0.496093,1.5119 0.921317,0.8032 2.04343,1.26386 6.118016,3.61518 2.18827,2.48894 0.7517,0.90204 1.77066,2.00452 0.73499,1.75396 z"
       id="path922"
       clip-path="url(#clipPath290)" />
  </g>
  <g
     inkscape:groupmode="layer"
     id="layer4"
     inkscape:label="Cabbage holes"
     style="display:none">
    <path
       style="fill:#36311d;fill-opacity:1;stroke:#000000;stroke-width:0;stroke-linecap:butt;stroke-linejoin:miter;stroke-miterlimit:4;stroke-dasharray:none;stroke-opacity:1"
       d="m 96.39574,96.360304 0.330729,-0.05906 0.248048,0.153555 0.224423,0.318918 v 0.437035 l 0.118117,0.259858 0.271671,0.04134 0.295294,-0.41341 0.194894,-0.01772 0.342541,-0.767762 0.27167,-0.732329 -0.177176,-0.27167 0.242141,-0.631929 0.212611,-0.561058 -0.307105,-0.437035 -0.465971,0.0263 -0.209746,0.172941 -0.338191,0.391036 -0.258252,0.04641 -0.185344,0.541604 -0.178425,0.256829 -0.05894,0.17995 -0.330844,0.251179 -0.12993,0.4016 -0.177176,0.09449 z"
       id="path952"
       sodipodi:nodetypes="cccccccccccccccccccccccccc"
       clip-path="url(#clipPath286)" />
    <path
       style="fill:#2e3611;fill-opacity:1;stroke:#000000;stroke-width:0;stroke-linecap:butt;stroke-linejoin:miter;stroke-miterlimit:4;stroke-dasharray:none;stroke-opacity:1"
       d="m 119.99563,107.54013 0.41932,0.1004 0.18898,0.0532 0.20671,0.37203 0.0354,0.25395 0.15949,0.18899 0.15946,0.67327 0.13584,0.8091 0.18308,0.34254 0.0473,0.25396 0.2539,0.13583 -0.0118,0.34254 -0.006,0.46657 0.20088,0.26576 0.2953,0.0472 0.4075,-0.0649 -0.006,-0.37209 -0.32473,-0.38388 -0.1063,-0.42522 -0.1949,-0.12403 -0.006,-0.22442 -0.26567,-0.29529 0.12403,-0.27167 -0.24805,-0.40751 -0.16537,-0.50791 -0.0768,-0.36025 -0.059,-0.27167 -0.33076,-0.34254 -0.0295,-0.31302 -0.20674,-0.19489 -0.31891,-0.0413 -0.12403,-0.25399 -0.3012,-0.0472 -0.15355,0.14169 -0.065,0.22442 z"
       id="path954"
       clip-path="url(#clipPath282)" />
    <path
       style="fill:#4c5129;fill-opacity:1;stroke:#000000;stroke-width:0;stroke-linecap:butt;stroke-linejoin:miter;stroke-miterlimit:4;stroke-dasharray:none;stroke-opacity:1"
       d="m 133.03581,101.09386 0.23623,0.13584 0.22147,0.19194 0.32483,0.17718 0.0827,0.29234 0.2746,0.28348 -0.0148,0.0797 -0.23915,-0.0443 -0.40751,-0.19486 -0.0768,-0.16536 -0.36023,-0.1447 -0.19194,-0.25985 -0.0148,-0.25396 z"
       id="path964"
       clip-path="url(#clipPath278)" />
  </g>
  <g
     inkscape:groupmode="layer"
     id="layer6"
     inkscape:label="Cabbage other veins"
     style="display:inline">
    <path
       style="fill:url(#linearGradient1024);fill-opacity:1;stroke:#000000;stroke-width:0;stroke-linecap:butt;stroke-linejoin:miter;stroke-miterlimit:4;stroke-dasharray:none;stroke-opacity:1"
       d="m 113.95704,159.79377 -2.3219,-1.43658 -1.43657,-1.11919 m 0,0 -2.15486,-2.08804 -1.43658,-1.46998 -1.5535,-1.5368 -1.05238,-0.73499 -0.93544,-0.16705 -0.85192,-0.26727 -0.30903,-0.32573 -0.0961,-0.26727 0.10028,-0.0418 0.63476,0.24643 0.84775,0.11275 1.02314,0.29651 -1.78319,-0.84775 -0.74334,-0.66817 -0.93545,-0.91039 -0.85192,-0.66817 -1.07743,-0.99391 -1.169304,-1.07743 -0.868626,-0.98556 -1.65373,-1.51174 -0.826865,-0.9438 -0.9605,-1.04402 -0.567948,-0.7851 -0.709935,-0.40926 -0.868626,-0.67653 -0.876978,-0.83521 -0.325735,-0.80181 -0.534539,-0.67653 -0.801808,-0.593 -0.69323,-0.61806 -0.659822,-0.41761 -1.135896,-0.7517 -0.534539,-0.91039 -0.400904,-0.83521 -0.776752,-0.80181 -0.350791,-0.93544 -0.300679,-0.93545 -0.584652,-0.70158 -0.968852,-0.60136 -0.484426,-0.75169 -0.668174,-0.58465 -0.985556,-0.48443 -0.437493,-0.37874 0.03544,-0.18308 0.171266,0.0177 0.478376,0.29531 0.915411,0.49609 0.803199,0.7973 0.637835,0.61421 0.862258,0.61421 0.502,0.72642 0.431129,1.03353 0.37207,0.89769 0.708706,0.85636 0.608305,0.97447 1.039435,0.67917 1.24614,0.7028 0.903599,0.80911 0.897693,0.79138 0.696894,0.88589 0.330729,0.75595 0.614212,0.6024 -0.259859,-0.83864 -0.448847,-1.39378 -0.236235,-1.21662 -0.307106,-1.05124 -0.413411,-1.15755 -0.744141,-1.07487 -0.637834,-1.44104 -0.543341,-1.44103 -0.366165,-1.28748 -0.153553,-0.94494 -0.256574,-0.95949 -0.935443,-0.83522 -1.26953,-0.61806 -1.486687,-0.71829 -1.135896,-0.63476 -1.570208,-0.91874 -0.321559,-0.28398 -0.04594,-0.3132 0.175399,-0.0501 0.776752,0.54288 1.411517,0.71828 1.988713,0.95237 1.559151,0.68508 0.944941,0.77958 0.685082,0.8032 0.188988,1.67727 0.566964,1.79539 0.661458,1.32291 0.661459,1.22843 0.590588,1.39378 0.566964,1.58278 0.330729,1.08668 0.354353,1.46466 0.496093,1.18117 0.614212,0.66146 0.803199,0.77958 0.826823,1.1103 0.968564,1.11031 1.441034,1.53553 1.889881,1.84263 1.417408,1.37016 1.37017,1.06306 1.41741,1.06306 1.9135,1.55915 1.84264,1.72452 2.19698,1.98437 1.63002,1.32292 2.48047,1.9135 0.96857,1.01581 -0.78236,0.47681"
       id="path974"
       clip-path="url(#clipPath274)" />
    <path
       style="fill:url(#linearGradient1050);fill-opacity:1;stroke:#000000;stroke-width:0;stroke-linecap:butt;stroke-linejoin:miter;stroke-miterlimit:4;stroke-dasharray:none;stroke-opacity:1"
       d="m 88.583144,141.85329 -0.158691,0.42597 -0.350792,0.15034 -0.910386,-1.04402 m 0,0 -1.002261,-1.26953 -0.952148,-1.21942 -0.968852,-1.35305 -1.520095,-2.00452 -0.618061,-1.45328 -0.701582,-1.20271 -0.484426,-1.18601 -0.918739,-1.10249 -0.217157,-0.53454 0.200452,-0.31738 0.534539,0.50113 0.718287,0.96885 0.734991,0.83522 0.300679,1.20271 0.651469,1.1359 1.002261,1.01896 0.751695,1.10249 1.018965,1.05238 0.400905,0.88533 0.835217,1.08578 1.65373,2.32189"
       id="path1042"
       sodipodi:nodetypes="cccccccccccccccccccccccccc"
       clip-path="url(#clipPath270)" />
    <path
       style="display:inline;fill:url(#linearGradient1084);fill-opacity:1;stroke:#000000;stroke-width:0;stroke-linecap:butt;stroke-linejoin:miter;stroke-miterlimit:4;stroke-dasharray:none;stroke-opacity:1"
       d="m 115.51897,157.30896 -3.87425,-3.85063 -2.14974,-2.52771 m 0,0 -2.008,-1.88988 -2.008,-2.05525 -2.55134,-2.3151 -1.84263,-2.48047 -2.787577,-2.97656 -1.866257,-2.24424 -1.67727,-2.19698 -2.102492,-2.97657 -0.897694,-1.81901 -1.535528,-3.49628 -0.637835,-2.38597 -0.755952,-1.79539 -2.693081,-2.29148 -1.653645,-1.88988 -0.543341,-0.51972 -1.630022,-0.54334 0.87407,-0.0945 1.393787,0.16537 1.015811,1.2048 1.34654,1.39379 1.252046,0.82682 1.157552,1.25205 0.708705,1.96075 0.02362,-2.07887 -0.661454,-2.10249 -0.755953,-2.12612 h 1.181176 l 0.897693,1.72452 0.708706,2.14974 0.401599,2.10249 0.188988,3.14193 0.141742,2.69308 1.370163,2.57496 2.22061,2.7167 3.212798,4.25224 3.638025,3.87425 4.27585,4.22861 2.88207,2.74033 2.74033,2.8112 4.41759,4.13411 -1.41741,0.7087"
       id="path1054"
       clip-path="url(#clipPath266)" />
    <path
       style="fill:url(#linearGradient1095);fill-opacity:1;stroke:#000000;stroke-width:0;stroke-linecap:butt;stroke-linejoin:miter;stroke-miterlimit:4;stroke-dasharray:none;stroke-opacity:1"
       d="m 117.43248,156.22228 -1.96076,-3.26004 m 0,0 -4.06324,-5.07906 -2.69308,-3.59077 -2.69308,-3.77976 -1.70089,-2.29148 -2.38598,-2.97656 -2.78757,-4.46485 -2.291481,-3.44903 -2.102493,-3.42541 -2.504092,-4.39397 -1.322917,-1.86626 -2.480468,-1.11031 -2.031622,-0.92131 -3.519904,-3.18918 2.385975,1.53553 4.015997,2.4096 1.653646,0.49609 0.07087,-1.34654 -1.157552,-2.3151 -1.606398,-0.92132 -2.834822,-3.18917 3.141927,2.55134 1.370164,0.82682 1.441034,2.12612 0.4016,2.00799 0.519717,1.63003 2.409598,4.15774 2.882069,4.67745 3.850632,5.69327 3.89788,5.22079 4.46484,5.90588 4.60659,5.38616 2.85844,3.47266 1.88988,3.1183 -1.34654,0.8977 -0.37797,-0.54335"
       id="path1087"
       clip-path="url(#clipPath262)" />
    <path
       style="fill:url(#linearGradient1105);fill-opacity:1;stroke:#000000;stroke-width:0;stroke-linecap:butt;stroke-linejoin:miter;stroke-miterlimit:4;stroke-dasharray:none;stroke-opacity:1"
       d="m 121.7792,154.49777 -2.7167,-4.60659 m 0,0 -4.63021,-6.52009 -3.89788,-5.10267 -4.25223,-6.73271 -2.90569,-5.38616 -3.01678,-5.91167 -1.904298,-3.64155 -3.741773,-4.57699 -1.904296,-2.27179 -1.971112,0.4009 -0.567948,-0.36749 1.737252,-0.53454 -0.601357,-2.50565 -0.167043,-1.93771 1.169304,-0.63476 0.06682,-1.20271 0.534537,1.30293 -0.935444,0.86863 0.334087,2.53906 1.904296,2.57247 3.908816,4.94449 1.202713,1.87088 2.438836,4.57699 3.20723,6.01357 4.57699,7.08264 3.37428,4.94449 2.93997,4.20949 3.40768,4.6104 2.33861,3.00678 2.13816,-1.10248 0.53454,3.00678 -2.60136,1.08506"
       id="path1097"
       clip-path="url(#clipPath258)" />
    <path
       style="fill:url(#linearGradient1115);fill-opacity:1;stroke:#000000;stroke-width:0;stroke-linecap:butt;stroke-linejoin:miter;stroke-miterlimit:4;stroke-dasharray:none;stroke-opacity:1"
       d="m 123.62184,149.2061 -2.85845,-4.15774 -2.64583,-6.52009 m 0,0 -1.96075,-4.34672 -2.52772,-4.25223 -2.85844,-4.63021 -3.51991,-5.03181 -3.37816,-4.22861 -2.26786,-3.04743 -2.598582,-3.56715 -2.149739,-3.11831 -0.09449,-1.37016 -1.015815,-1.41741 -1.441034,-1.48828 -0.165365,-0.87407 1.795387,1.81901 1.063058,1.44103 1.063058,-1.01581 0.921317,-0.42522 -0.330729,-1.6064 -1.27567,-2.480469 1.488281,1.511909 0.614212,2.36235 -0.354353,0.94494 -1.252046,0.96856 -0.259859,0.92132 1.535529,2.7167 2.45684,3.47266 2.33873,3.09468 5.00819,6.11849 2.85844,3.68527 2.43322,4.25223 2.76395,4.74832 2.29149,4.46485 2.40959,4.18136 1.32292,3.00019 1.32292,2.52771 -0.73233,1.34654"
       id="path1107"
       clip-path="url(#clipPath254)" />
    <path
       style="fill:url(#linearGradient1129);fill-opacity:1;stroke:#000000;stroke-width:0;stroke-linecap:butt;stroke-linejoin:miter;stroke-miterlimit:4;stroke-dasharray:none;stroke-opacity:1"
       d="m 126.17318,142.28441 -3.16556,-4.44122 -2.64583,-6.00037 m 0,0 -1.5119,-4.39397 -2.92932,-7.15793 -1.88988,-4.20498 -1.70089,-3.56715 -1.39379,-2.66946 -1.44103,-2.52772 -0.99219,-0.87407 -0.99219,-0.44884 -1.37016,-0.8977 -1.22842,-1.39378 -1.37017,-1.27567 -1.22842,-1.22842 -0.89769,-1.204804 -0.96857,-1.464658 -0.897691,-1.228422 1.133931,0.47247 0.87407,1.488281 0.87407,1.063063 1.1103,1.29929 1.88988,1.81901 1.15756,1.13393 1.44103,0.96856 0.89769,0.4016 -0.89769,-2.4096 -1.06306,-2.33872 -0.73233,-1.913509 -0.59058,-2.196987 -1.01582,-1.441034 -1.27567,0.4016 -0.92131,-0.02362 -2.12612,-1.133933 -0.0945,-0.661458 2.07888,1.015811 1.9135,-0.259859 -1.67727,-3.118303 2.38598,3.047433 0.44884,0.850446 0.73233,0.779576 0.73233,-0.283482 0.82682,-0.448847 0.28349,-1.582775 -1.22843,-1.960751 -1.13393,-2.693081 1.58278,2.244234 1.13393,1.606399 1.29929,-0.448847 0.73233,0.685082 -1.44103,0.590588 0.0472,1.252046 1.58282,1.488281 1.55915,2.126116 1.6064,2.362354 1.98437,3.02381 1.58278,3.47265 1.81901,4.20499 1.22842,2.85844 1.34654,3.94513 0.96857,2.78757 1.5119,3.37817 1.27567,3.07105 2.26786,3.77976 0.54334,1.13393 -0.4016,1.34654 -1.39379,-1.96075 -1.32291,-2.52771 -1.13393,-3.04744 -1.2993,-3.1183 -2.00799,-5.24442 -1.41742,-4.016 -2.29148,-5.66964 -1.55915,-3.44903 -2.17336,-3.42541 -1.63002,-2.574965 -1.81901,-2.29148 -1.46466,-0.850447 -1.48828,0.944941 0.4016,2.126116 1.63002,3.874255 1.77176,4.27586 2.59859,4.77195 2.55134,5.48065 2.62221,5.85863 2.62221,6.37835 1.06306,3.23642 1.86625,3.73252 2.59859,3.40178 -0.35435,1.88988"
       id="path1117"
       clip-path="url(#clipPath250)" />
    <path
       style="fill:url(#linearGradient1153);fill-opacity:1;stroke:url(#linearGradient1139);stroke-width:0;stroke-linecap:butt;stroke-linejoin:miter;stroke-miterlimit:4;stroke-dasharray:none;stroke-opacity:1"
       d="m 99.624715,104.10148 -0.952148,-0.41761 m 0,0 0.546183,-0.7326 1.28748,0.7087 1.13393,0.88588 2.1143,2.35054 1.99619,2.52772 2.33873,2.63402 1.61821,1.68908 1.29929,0.99219 1.61821,0.88588 0.56697,0.85045 -1.47647,-0.64965 -2.09068,-1.27567 -1.79539,-1.93713 -1.48828,-1.5119 -1.53553,-1.9017 -1.01581,-1.5119 -1.75995,-1.8072 -0.8977,-1.13393 -0.82682,-0.56696 -0.680715,-0.0782"
       id="path1131"
       clip-path="url(#clipPath246)" />
    <path
       style="fill:url(#linearGradient1175);fill-opacity:1;stroke:#000000;stroke-width:0;stroke-linecap:butt;stroke-linejoin:miter;stroke-miterlimit:4;stroke-dasharray:none;stroke-opacity:1"
       d="m 130.68527,109.68396 -2.55134,-3.16555 m 0,0 -2.69308,-3.28366 -1.03944,-0.85045 -2.55134,-5.197172 -1.63002,-3.354539 -1.65364,-3.071056 -0.4961,-2.173363 -0.0236,-2.811198 0.28346,-1.299293 0.0945,1.866257 0.28348,2.102493 0.68508,2.196986 1.22842,2.244234 1.48828,3.378162 2.03163,3.968749 1.46465,2.008 1.74814,2.12612 2.78758,3.28366 0.8032,0.75596 -0.25986,1.27566"
       id="path1167"
       clip-path="url(#clipPath242)" />
    <path
       style="display:inline;fill:url(#linearGradient1165);fill-opacity:1;stroke:#000000;stroke-width:0;stroke-linecap:butt;stroke-linejoin:miter;stroke-miterlimit:4;stroke-dasharray:none;stroke-opacity:1"
       d="m 130.21037,124.83157 -2.07134,-2.6894 m 0,0 -1.97111,-2.83973 -1.57021,-3.09031 -0.83521,-2.00452 -1.21942,-2.87315 -1.921,-4.12597 -1.60362,-4.27631 -1.68714,-3.40769 -1.1526,-2.288495 -2.33861,-0.818513 -1.85418,-1.202713 -2.38872,-1.77066 -0.65147,-3.758478 -0.0501,-1.336348 1.01895,2.488948 0.58466,2.388721 2.40542,1.720548 2.22168,0.868626 -1.23612,-3.040191 -0.41761,-2.071339 -0.0334,-1.820774 0.70157,-0.918739 1.35305,0.116931 0.65147,0.684878 0.55125,1.353052 -0.96885,-0.952148 -0.78511,-0.350791 -0.80181,0.317383 0.20045,2.121451 0.85193,2.104748 1.01896,2.204974 1.80407,3.324164 1.5201,3.457795 1.10248,2.6727 1.9043,4.27631 1.83748,4.47677 2.27179,4.91107 1.77066,2.45554 1.98782,2.08805 -0.58466,1.45327"
       id="path1155"
       clip-path="url(#clipPath238)" />
    <path
       style="display:inline;fill:url(#linearGradient1186);fill-opacity:1;stroke:#000000;stroke-width:0;stroke-linecap:butt;stroke-linejoin:miter;stroke-miterlimit:4;stroke-dasharray:none;stroke-opacity:1"
       d="m 120.44448,89.53311 0.77957,1.925314 1.38198,1.252049 1.08668,1.311105 1.50009,1.181175 1.01581,0.248047 c -0.0637,-0.198623 -0.21545,-0.335462 -0.36616,-0.47247 l -0.85045,-0.519717 -0.81501,-0.779576 -0.64965,-0.921317 -0.56696,-0.685082 -1.08668,-0.566964 c -0.14913,-0.185812 -0.35301,-0.322477 -0.47247,-0.53153 -0.0117,-0.02051 0.003,-0.04743 0,-0.07087 -0.004,-0.02844 -0.0196,-0.05431 -0.0236,-0.08268 -0.0118,-0.08284 0,-0.176162 0,-0.259859 0,-0.07765 -0.0152,-0.171782 0,-0.248047 0.007,-0.03704 0.097,-0.190864 0.0945,-0.2008 -0.0139,-0.05557 -0.12286,-0.204352 -0.16537,-0.236235 -0.0295,-0.02213 -0.0655,-0.0373 -0.0945,-0.05906 -0.085,-0.06372 0.0249,0.01312 -0.0354,-0.04725 -0.0461,-0.0461 -0.006,0.0027 -0.0354,-0.01181 -0.0179,-0.009 -0.027,-0.03877 -0.0354,-0.04725 -0.0122,-0.01219 -0.0343,-0.01716 -0.0472,-0.02362 -0.0467,-0.02334 -0.0967,-0.07629 -0.14174,-0.106306 -0.0989,-0.06595 -0.34977,-0.07179 -0.47247,-0.04725 z"
       id="path1178"
       clip-path="url(#clipPath234)" />
    <path
       style="display:inline;fill:url(#linearGradient1202);fill-opacity:1;stroke:#000000;stroke-width:0;stroke-linecap:butt;stroke-linejoin:miter;stroke-miterlimit:4;stroke-dasharray:none;stroke-opacity:1"
       d="m 129.69308,100.55348 0.56696,-1.488285 m 0,0 0.12993,-0.921315 -0.8032,-1.795387 0.17718,-1.689081 -0.77957,-1.476469 0.14174,-0.755953 -0.50791,-1.228422 0.42522,-1.901693 0.18899,1.925316 0.36617,1.216611 -0.0591,0.732329 0.67331,1.181176 -0.0236,1.61821 0.48426,1.216611 0.15355,1.063058 -0.10631,1.252046 -0.51971,2.468658 -0.50791,-1.41741"
       id="path1194"
       clip-path="url(#clipPath230)" />
    <path
       style="display:inline;fill:url(#linearGradient1218);fill-opacity:1;stroke:#000000;stroke-width:0;stroke-linecap:butt;stroke-linejoin:miter;stroke-miterlimit:4;stroke-dasharray:none;stroke-opacity:1"
       d="m 131.36297,121.44059 2.13816,-3.10701 m 0,0 1.50339,-3.8754 0.4009,-3.17383 -0.16704,-3.87541 v -3.14042 l -1.06908,-3.70836 -0.86862,-4.309721 0.46772,-4.309721 0.33409,4.677216 0.83521,3.841996 0.86863,3.14042 0.30068,5.24517 0.70158,0.20045 0.80181,-1.30294 0.30068,-1.80407 1.30294,-0.0668 1.36975,1.6036 0.96885,1.97111 0.20046,3.27405 -0.3675,2.83974 -1.87089,4.87767 -3.37427,5.41221 -2.40543,3.50791 -1.97111,3.17383 -2.57247,1.80407 0.60135,-2.97338 1.40317,-0.13363 1.73725,-2.07134 1.36976,-2.27179 1.63702,-2.40543 1.83748,-2.67269 1.60362,-3.50792 1.13589,-3.107 0.30068,-3.24065 -0.50113,-3.04019 -1.26953,-2.17156 -0.60135,0.60135 -0.60136,1.36976 -0.33409,0.93544 -1.10248,1.16931 -0.23387,1.73725 -0.66817,2.60588 -0.86863,2.60588 -0.83521,2.07133 -1.26953,2.53906 -1.43658,3.47451 0.26727,-4.40995"
       id="path1210"
       clip-path="url(#clipPath226)" />
    <path
       style="display:inline;fill:url(#linearGradient1228);fill-opacity:1;stroke:#000000;stroke-width:0;stroke-linecap:butt;stroke-linejoin:miter;stroke-miterlimit:4;stroke-dasharray:none;stroke-opacity:1"
       d="m 128.41741,139.87481 2.55134,-2.14974 m 0,0 3.70889,-3.30729 3.33092,-2.88207 2.78757,-2.92931 2.12612,-2.83482 1.29929,-2.50409 0.85045,-2.48047 0.18898,-2.8112 1.51191,1.58277 0.49609,1.96076 -1.29929,1.79538 -1.6064,1.53553 -1.48828,2.45685 -1.93713,2.57496 -2.14974,2.3151 -3.1183,2.85845 -2.59859,2.55134 -2.07887,1.86625 -2.78757,1.86626 -1.01581,5.07906 2.17336,-1.2993 2.62221,-1.88988 3.6144,-2.52771 3.85063,-3.42541 2.45685,-2.57496 2.57496,-2.52772 2.36235,-2.52772 1.34654,-2.19698 0.77958,-1.03944 -0.23624,1.91351 -1.18117,1.70089 -1.72452,1.9135 -2.45685,2.69308 -2.74032,2.95294 -3.26005,2.85845 -3.04743,2.14974 -2.62221,2.07887 -2.19699,1.79538 -3.09468,1.53553 1.11031,-7.63039 0.89769,-0.4961"
       id="path1220"
       clip-path="url(#clipPath222)" />
    <path
       style="display:inline;fill:url(#linearGradient1240);fill-opacity:1;stroke:#000000;stroke-width:0;stroke-linecap:butt;stroke-linejoin:miter;stroke-miterlimit:4;stroke-dasharray:none;stroke-opacity:1"
       d="m 127.7087,152.22991 3.14193,-2.50409 m 0,0 4.53572,-2.74033 3.40178,-2.3151 2.97657,-2.05525 2.90569,-2.55134 1.72451,-1.81901 2.008,-1.93713 -0.0709,1.44104 -2.17333,1.93713 -2.10249,2.17336 -1.98438,1.74814 -1.96075,1.37016 -2.52772,1.48828 -3.35454,2.31511 -3.09468,1.77176 -1.22842,1.55915 -2.19699,0.11812"
       id="path1230"
       clip-path="url(#clipPath218)" />
    <path
       style="display:inline;fill:url(#linearGradient1248);fill-opacity:1;stroke:#000000;stroke-width:0;stroke-linecap:butt;stroke-linejoin:miter;stroke-miterlimit:4;stroke-dasharray:none;stroke-opacity:1"
       d="m 133.30748,153.41108 3.18917,-2.22061 m 0,0 2.97656,-1.98437 2.57497,-2.29148 2.19698,-1.13393 -1.25204,1.55915 -2.17337,1.77177 -2.29148,1.53553 -2.48046,1.79538 -2.26786,1.13393 0.0472,0.56697 3.0711,-1.13393 1.72452,-1.34654 1.5119,-1.06306 1.65365,-1.13393 1.41741,-1.11031 -0.89769,1.55916 -2.14974,1.70089 -2.008,1.18118 -1.51191,0.94494 -1.9135,0.7087 -1.39379,0.42522 -0.0236,-1.46466"
       id="path1232"
       clip-path="url(#clipPath214)" />
  </g>
  <g
     inkscape:groupmode="layer"
     id="layer5"
     inkscape:label="Cabbage main vein"
     style="display:inline">
    <path
       style="fill:url(#linearGradient1032);fill-opacity:1;stroke:#000000;stroke-width:0;stroke-linecap:butt;stroke-linejoin:miter;stroke-miterlimit:4;stroke-dasharray:none;stroke-opacity:1"
       d="m 122.03906,155.738 0.31892,-2.19699 m 0,0 0.8032,-3.13011 0.88588,-2.70489 0.74414,-2.38598 1.18118,-4.29948 0.63783,-3.13011 0.61009,-2.71888 1.00226,-2.78962 0.70158,-1.95441 0.46772,-2.6727 0.43431,-3.0736 0.73499,-3.07359 0.0334,-2.17157 -0.0167,-2.42213 0.0334,-2.3052 -0.0167,-2.42213 -0.10021,-2.37202 -0.13364,-2.48894 -0.20045,-1.80407 -0.61806,-2.27179 -0.0835,-1.00227 -0.25059,-1.70384 -0.4009,-1.586911 -0.55125,-1.753957 -0.58465,-1.77066 -0.86862,-1.386461 -0.68488,-1.469982 -0.73499,-0.785104 -1.45328,-1.052374 -0.60136,-0.739167 -0.34244,-1.24865 0.16287,-0.208805 0.11693,0.208805 0.52619,1.369756 0.8728,0.897859 1.34052,0.634765 0.90621,1.202713 0.77382,1.26687 0.54334,1.051247 0.50791,1.334728 0.49609,1.122117 0.41341,1.417411 0.24805,1.14574 0.46066,2.04343 0.5079,2.45685 0.31892,1.66546 0.30711,1.6064 0.16536,2.12611 0.0118,2.76395 0.0473,2.27967 -0.0237,2.05525 0.0118,1.8072 0.0237,1.32291 -0.0945,3.89788 -0.44887,2.94113 -0.47247,2.36235 -0.24805,1.59459 -0.69689,3.77976 -0.75595,2.83482 -0.31892,3.08287 -0.43703,2.39779 -0.56697,2.84663 -0.49609,2.4096 -0.72052,2.45684 -0.83863,3.24823 -3.59078,1.46466"
       id="path967"
       clip-path="url(#clipPath210)" />
  </g>
  <g
     inkscape:groupmode="layer"
     id="layer9"
     inkscape:label="shirt"
     style="display:inline">
    <path
       style="fill:#262626;fill-opacity:1;stroke:#000000;stroke-width:0;stroke-linecap:butt;stroke-linejoin:miter;stroke-miterlimit:4;stroke-dasharray:none;stroke-opacity:1"
       d="m 27.119791,258.81919 -0.377975,-8.26822 -1e-6,-6.80357 0.283483,-5.66965 m 0,0 1.370163,-8.45721 2.267857,-12.89844 3.827009,-13.5599 2.740328,-7.08705 1.41741,-3.40179 -0.09449,-2.36235 0.755949,-2.59858 0.803199,-2.36236 1.889881,-1.84263 1.322917,-1.88988 2.362351,-2.97656 4.346726,-4.8192 1.984375,-0.23623 2.22061,-1.13393 2.456846,-0.51972 c 0.125992,0.0157 0.251984,0.0315 0.377976,0.0473 l 2.551339,0.23618 3.165551,-0.7087 4.630208,-0.23624 5.480655,0.56697 1.511905,0.18898 0.94494,-1.37016 2.929315,-1.5119 0.992188,-0.0945 2.173363,-1.88988 2.078869,-1.37016 1.842634,-2.22061 2.22061,-0.51972 3.638021,-1.65365 3.590774,-0.47247 1.700893,-0.51971 2.929315,0.23623 2.740325,0.61421 2.03162,0.42523 3.16556,0.80319 3.16555,1.18118 1.22842,1.22842 -2.36235,6.94532 -3.87426,9.02418 -2.03162,5.10268 -0.28348,5.71689 10.81957,3.44903 20.45796,-31.93899 2.55134,-0.28348 0.94494,0.18899 1.13393,0.8032 0.37797,1.22842 1.37017,0.7087 1.84263,0.33073 1.37016,0.66146 1.22843,1.37016 0.0945,0.61422 1.70088,0.37797 1.88988,0.47247 3.02381,0.37798 3.26005,-0.33073 2.59858,0.0945 3.07106,0.14173 2.50409,0.0472 2.50409,0.18904 3.3073,0.51972 2.92931,-0.47247 2.45685,0.28348 2.22061,-0.37798 2.03162,0.85045 3.49628,3.96875 1.93713,2.92931 2.45684,3.49628 1.51191,3.26005 1.88988,2.78757 2.36235,3.07106 3.40178,4.44122 13.41322,115.24204 -175.137514,2.63471 -7.136565,-53.99878"
       id="path1298"
       sodipodi:nodetypes="cccccccccccccccccccccccccccccccccccccccccccccccccccccccccccccccccccccccccccccccc"
       clip-path="url(#clipPath206)" />
  </g>
  <g
     inkscape:groupmode="layer"
     id="layer10"
     inkscape:label="sleeve">
    <path
       style="fill:url(#linearGradient1319);fill-opacity:1;stroke:#000000;stroke-width:0;stroke-linecap:butt;stroke-linejoin:miter;stroke-miterlimit:4;stroke-dasharray:none;stroke-opacity:1"
       d="m 109.31324,193.83722 8.0849,5.84652 m 0,0 -1.40317,2.17157 -2.57246,7.04923 -0.23387,7.98468 -0.23386,5.91334 0.20046,3.27405 0.83521,3.00678 0.50113,2.60588 -0.30067,1.83748 -1.00227,1.70384 0.13364,3.64155 0.0668,3.87541 -1.93769,4.27631 -4.91107,8.25195 -2.87315,4.97789 -2.73951,5.71289 -0.66818,3.20723 -1.069077,2.23839 -4.309721,4.40994 c -0.05568,0.0779 -0.111362,0.15591 -1.720549,2.65598 l -16.430967,20.59552 -32.883928,2.26787 c -1.006973,0.11188 -0.56522,0.0945 -1.322917,0.0945 l -8.40997,-10.86682 -3.307291,-8.69346 -1.984375,-11.0558 -1.795387,-13.22917 0.09449,-14.55208 1.228426,-13.60714 2.362351,-13.70164 3.96875,-13.89062 3.96875,-9.07143 0.188989,-3.68527 0.992187,-3.07106 0.944941,-1.2048 1.582775,-1.5119 14.244978,61.63374 3.590773,-2.55134 2.362352,-3.1183 2.031622,-2.07887 1.700892,0.18899 2.409599,-0.8032 1.795387,-3.63802 2.787574,-4.53572 1.606399,-2.64583 1.086681,-2.22061 3.071057,-3.07106 c 0.110243,-0.0157 0.220486,-0.0315 0.330729,-0.0472 l 1.464658,-1.5592 -1.606399,-2.22061 -0.283482,-2.88206 0.188988,-2.22061 1.795387,-1.74814 2.173363,-0.70871 2.787574,-0.94494 3.260045,-4.44122 2.598586,-3.54353 2.55134,-4.48846 2.173363,-3.44904 3.118303,-0.33073 6.331104,0.47247 4.81919,1.13393 -1.43378,0.36066"
       id="path1309"
       sodipodi:nodetypes="ccccccccccccccccccccccccccccccccccccccccccccccccccccccccccccccccc"
       clip-path="url(#clipPath202)" />
  </g>
  <g
     inkscape:groupmode="layer"
     id="layer7"
     inkscape:label="hand"
     style="display:inline">
    <path
       style="fill:url(#linearGradient1277);fill-opacity:1;stroke:#000000;stroke-width:0;stroke-linecap:butt;stroke-linejoin:miter;stroke-miterlimit:4;stroke-dasharray:none;stroke-opacity:1"
       d="m 97.67141,192.0119 1.594585,-2.44503 m 0,0 1.960755,-2.97656 2.3569,-4.19556 1.1526,-2.47224 1.98781,-3.70837 0.91874,-4.07586 1.16931,-3.22394 1.58691,-3.42439 0.96885,-2.63929 0.93544,-2.20497 1.18601,-1.90429 0.95215,-1.21942 1.5201,-0.81852 1.5368,-0.58465 2.27179,-0.70158 1.5368,-1.05237 1.05237,-0.88533 1.01897,-0.43432 1.33634,-0.50113 0.93545,-0.30068 0.95214,-0.0501 1.00227,-0.3675 0.81851,0.11693 0.3842,0.46772 0.43431,0.10022 0.43431,-0.23386 c 0.0334,-0.006 0.0668,-0.0111 0.10023,-0.0167 l 0.90203,-0.40091 0.78511,0.0501 0.46772,0.16706 0.3842,0.15034 0.21716,0.23386 0.26727,0.26727 0.21715,0.26727 0.18375,0.33409 0.0501,0.41761 0.0501,0.4009 0.0836,0.50113 0.0334,0.46772 -0.20049,0.46772 -0.3842,0.55125 -0.45102,0.56794 -0.70158,0.50114 -0.86863,0.56794 -0.95215,0.48443 -0.35079,0.45102 -0.18375,0.35079 0.66818,0.4009 1.08578,0.53454 1.05237,0.60136 1.26953,0.63476 1.5201,0.63477 0.81851,0.45102 0.50113,0.48442 0.3675,0.58465 0.31738,0.56795 0.0668,0.61806 -0.0334,0.70158 -0.20044,0.51784 -0.23386,0.36749 c -0.0501,0.0111 -0.10023,0.0223 -0.15034,0.0334 l -0.31739,0.56796 0.3508,0.45102 0.66817,0.36749 0.98556,0.7684 0.61806,0.70159 0.30067,1.11919 -0.0501,0.85192 -0.26728,0.65147 -0.41761,0.55124 0.55125,0.66818 0.56794,0.50113 0.63477,0.75169 0.20045,0.91874 -0.11693,0.80181 -0.15034,0.91874 -0.26727,0.63476 -0.41761,0.31739 -0.49099,0.7725 -0.87792,0.8385 -0.31907,0.34527 -0.29914,0.30339 -0.49826,0.39769 -0.84046,0.73415 -0.74512,0.74143 -0.74988,0.68977 -1.02727,0.57619 -0.73954,0.29998 -0.58731,-0.0654 -0.72619,0.61395 -1.921,2.85644 -2.93997,3.32417 v 0.13363 l -2.3219,2.48895 -1.45328,1.70384 -1.75395,1.63703 -1.35306,-0.0167 -0.83521,0.88533 -0.51784,1.26953 -0.51783,0.81851 -0.56795,0.7684 -0.53454,0.25056 -0.43431,-0.48442 -0.93545,-0.58465 -2.90655,-1.78737 -3.30746,-1.82077 -3.25735,-1.43658 -3.34087,-1.20271 -2.37202,-0.70158 -1.369753,-0.0167 -1.034567,-0.0547"
       id="path1269"
       sodipodi:nodetypes="ccccccccccccccccccccccccccccccccccccccccccccccccccccccccccccccccccccccccccccccccccccccccccccccccccccccccccccccccc"
       clip-path="url(#clipPath198)" />
  </g>
  <g
     inkscape:groupmode="layer"
     id="layer11"
     inkscape:label="Top" />
</svg>
